<svg xmlns="http://www.w3.org/2000/svg" version="1.1" xmlns:xlink="http://www.w3.org/1999/xlink" xmlns:svgjs="http://svgjs.dev/svgjs" width="2000" height="1999" viewBox="0 0 2000 1999"><g transform="matrix(1,0,0,1,-0.431486880466764,-0.4312711370263287)"><svg viewBox="0 0 343 343" data-background-color="#ffffff" preserveAspectRatio="xMidYMid meet" height="1999" width="2000" xmlns="http://www.w3.org/2000/svg" xmlns:xlink="http://www.w3.org/1999/xlink"><g id="tight-bounds" transform="matrix(1,0,0,1,0.0740000000000407,0.07400000000001228)"><svg viewBox="0 0 342.85155851775386 342.85155851775386" height="342.85155851775386" width="342.85155851775386"><g><svg></svg></g><g><svg viewBox="0 0 342.85155851775386 342.85155851775386" height="342.85155851775386" width="342.85155851775386"><g><path d="M0 171.426c0-94.676 76.75-171.426 171.426-171.426 94.676 0 171.426 76.75 171.426 171.426 0 94.676-76.75 171.426-171.426 171.426-94.676 0-171.426-76.75-171.426-171.426zM171.426 330.615c87.918 0 159.19-71.272 159.189-159.189 0-87.918-71.272-159.19-159.189-159.19-87.918 0-159.19 71.272-159.19 159.19 0 87.918 71.272 159.19 159.19 159.189z" data-fill-palette-color="tertiary" fill="#000000" stroke="transparent"></path><ellipse rx="164.56874808852186" ry="164.56874808852186" cx="171.42577925887693" cy="171.42577925887693" fill="#000000" stroke="transparent" stroke-width="0" fill-opacity="1" data-fill-palette-color="tertiary"></ellipse></g><g transform="matrix(1,0,0,1,64.84655864529837,103.58318300485203)"><svg viewBox="0 0 213.1584412271571 135.6851925080498" height="135.6851925080498" width="213.1584412271571"><g><svg viewBox="0 0 213.1584412271571 135.6851925080498" height="135.6851925080498" width="213.1584412271571"><g><svg viewBox="0 0 213.1584412271571 135.6851925080498" height="135.6851925080498" width="213.1584412271571"><g><svg viewBox="0 0 213.1584412271571 135.6851925080498" height="135.6851925080498" width="213.1584412271571"><g id="textblocktransform"><svg viewBox="0 0 213.1584412271571 135.6851925080498" height="135.6851925080498" width="213.1584412271571" id="textblock"><g><svg viewBox="0 0 213.1584412271571 135.6851925080498" height="135.6851925080498" width="213.1584412271571"><g transform="matrix(1,0,0,1,0,0)"><svg width="213.1584412271571" viewBox="2.7 -31.05 49.8 31.7" height="135.6851925080498" data-palette-color="#ffffff"><path d="M12.85-2.75L12.85-2.75 12.85-2.75Q16.2-2.75 17.93-4.28 19.65-5.8 19.65-8.2L19.65-8.2Q19.65-10.25 18.32-11.6 17-12.95 14.15-13.75L14.15-13.75 9.8-15.05Q7.7-15.7 6.15-16.73 4.6-17.75 3.78-19.28 2.95-20.8 2.95-22.85L2.95-22.85Q2.95-26.7 5.75-28.88 8.55-31.05 13.2-31.05L13.2-31.05Q15.9-31.05 18.03-30.48 20.15-29.9 21.38-29 22.6-28.1 22.6-27.1L22.6-27.1Q22.6-26.45 22.25-25.93 21.9-25.4 21.35-25.1L21.35-25.1Q20.1-26.1 17.98-26.85 15.85-27.6 13.35-27.6L13.35-27.6Q10.45-27.6 8.75-26.33 7.05-25.05 7.05-22.85L7.05-22.85Q7.05-21.1 8.28-20 9.5-18.9 12.25-18.1L12.25-18.1 15.3-17.2Q19.25-16.1 21.53-14 23.8-11.9 23.8-8.2L23.8-8.2Q23.8-4.25 20.93-1.8 18.05 0.65 12.85 0.65L12.85 0.65Q9.8 0.65 7.53-0.03 5.25-0.7 3.98-1.73 2.7-2.75 2.7-3.75L2.7-3.75Q2.7-4.6 3.23-5.18 3.75-5.75 4.45-6L4.45-6Q5.6-4.9 7.7-3.83 9.8-2.75 12.85-2.75ZM47.45-1.3L33.75-15.5 36.9-17.5Q42.2-12.4 46.02-8.4 49.85-4.4 52.5-2L52.5-2Q52.45-0.9 51.85-0.28 51.25 0.35 50.35 0.35L50.35 0.35Q49.5 0.35 48.82-0.15 48.15-0.65 47.45-1.3L47.45-1.3ZM49.7-26.15L37.45-14.1 33.4-15 48.45-30.6Q49.75-30.55 50.4-29.95 51.05-29.35 51.05-28.55L51.05-28.55Q51.05-27.9 50.72-27.33 50.4-26.75 49.7-26.15L49.7-26.15ZM30.6-1.55L30.6-18.35 34.7-18.35 34.7-0.05Q34.4 0.05 33.9 0.18 33.4 0.3 32.8 0.3L32.8 0.3Q31.7 0.3 31.15-0.15 30.6-0.6 30.6-1.55L30.6-1.55ZM34.7-28.8L34.7-15 30.6-15 30.6-30.3Q30.85-30.4 31.37-30.53 31.9-30.65 32.5-30.65L32.5-30.65Q33.6-30.65 34.15-30.23 34.7-29.8 34.7-28.8L34.7-28.8Z" opacity="1" transform="matrix(1,0,0,1,0,0)" fill="#ffffff" class="wordmark-text-0" data-fill-palette-color="quaternary" id="text-0"></path></svg></g></svg></g></svg></g></svg></g><g></g></svg></g></svg></g></svg></g></svg></g><defs></defs></svg><rect width="342.85155851775386" height="342.85155851775386" fill="none" stroke="none" visibility="hidden"></rect></g></svg></g></svg>